Coordinates
version=1
nRows=10
nColumns=23
inDegrees=yes

Units are S.I. units (second, meters, Newtons, ...)
If the header above contains a line with 'inDegrees', this indicates whether rotational values are in degrees (yes) or radians (no).

endheader
time	pelvis_tilt	pelvis_list	pelvis_rotation	pelvis_tx	pelvis_ty	pelvis_tz	hip_flexion_r	hip_adduction_r	hip_rotation_r	knee_angle_r	knee_angle_r_beta	ankle_angle_r	subtalar_angle_r	mtp_angle_r	hip_flexion_l	hip_adduction_l	hip_rotation_l	knee_angle_l	knee_angle_l_beta	ankle_angle_l	subtalar_angle_l	mtp_angle_l
     15.00000000	    -13.06899328	      5.39012538	     -1.44951326	      2.32645555	      0.91381393	      1.01620338	    -11.62513213	     -1.93148800	     -6.70965006	     13.81826329	      0.24117419	    -13.47144021	      0.00331305	      0.00000000	     55.67468453	      4.28242971	     -4.92811950	     96.97727703	      1.69257278	      0.07229419	    -18.73566843	      0.00000000
     15.00666667	    -13.62174020	      5.68168895	     -0.83335309	      2.32960298	      0.91761774	      1.01539070	    -13.35828380	     -2.32472753	     -8.08806334	     12.53899557	      0.21884676	    -15.78269402	      0.25764174	      0.00000000	     56.53626378	      5.31128600	     -4.77915628	     92.06269715	      1.60679718	      0.21166037	    -19.35217173	      0.00000000
     15.01333333	    -14.09384238	      5.82100144	     -0.27551550	      2.33252456	      0.92105785	      1.01470994	    -14.90757487	     -2.53559847	     -9.41500827	     11.87603680	      0.20727594	    -17.34744225	      0.20205481	      0.00000000	     57.10403044	      6.14526711	     -4.52587599	     86.99417978	      1.51833487	      0.36317976	    -19.87746447	      0.00000000
     15.02000000	    -14.51066439	      5.78937125	      0.21570820	      2.33507624	      0.92407039	      1.01414888	    -16.17275029	     -2.58581658	    -10.70374833	     11.96880639	      0.20889508	    -18.29511327	     -0.13526731	      0.00000000	     57.42793026	      6.73700869	     -4.19449212	     81.78668130	      1.42744687	      0.52876605	    -20.20703146	      0.00000000
     15.02666667	    -14.90111323	      5.58451482	      0.62348506	      2.33728916	      0.92655202	      1.01376191	    -17.12174510	     -2.50993353	    -11.94554055	     12.82864325	      0.22390206	    -18.70048001	     -0.75722160	      0.00000000	     57.54979549	      7.04155776	     -3.84866513	     76.46395367	      1.33454775	      0.78817203	    -20.18107767	      0.00000000
     15.03333333	    -15.16261296	      5.22391636	      0.95408900	      2.33915435	      0.92869244	      1.01348210	    -17.91846043	     -2.31926814	    -13.00435336	     14.33339337	      0.25016491	    -18.71041557	     -1.64583217	      0.00000000	     57.35216856	      7.11372117	     -3.50271089	     71.00913638	      1.23934323	      1.09860221	    -19.82975213	      0.00000000
     15.04000000	    -15.22695784	      4.78820859	      1.15197992	      2.34076399	      0.93054566	      1.01326907	    -18.64517331	     -2.15074346	    -13.84271143	     16.47290276	      0.28750639	    -18.38301481	     -2.57883703	      0.00000000	     56.75270511	      6.95850680	     -3.29799068	     65.40133063	      1.14146855	      1.32241911	    -19.35997239	      0.00000000
     15.04666667	    -15.16193691	      4.25566155	      1.28048942	      2.34205896	      0.93209144	      1.01303349	    -19.25354411	     -1.95788077	    -14.45084858	     19.16403579	      0.33447552	    -17.83012771	     -3.68144667	      0.00000000	     55.85020530	      6.64363864	     -3.19102492	     59.68033235	      1.04161830	      1.49560406	    -18.48193557	      0.00000000
     15.05333333	    -14.94171220	      3.77407900	      1.19531950	      2.34312862	      0.93342755	      1.01291013	    -19.72111625	     -1.97837388	    -14.77132435	     22.49103045	      0.39254253	    -17.20252617	     -4.58748201	      0.00000000	     54.58410862	      6.15191282	     -3.42336038	     53.82051935	      0.93934527	      1.59347221	    -17.43571592	      0.00000000
     15.06000000	    -14.59960000	      3.23165473	      1.08735557	      2.34405170	      0.93444889	      1.01272231	    -20.14402162	     -1.93935311	    -14.70270429	     26.16655869	      0.45669260	    -16.59477932	     -5.87220635	      0.00000000	     53.04052069	      5.57695740	     -3.82420712	     47.94894452	      0.83686695	      1.66189528	    -15.89379520	      0.00000000
